Coordinates
version=1
nRows=65
nColumns=12
inDegrees=yes

Units are S.I. units (second, meters, Newtons, ...)
Angles are in degrees

endheader
time	SC_y	SC_z	SC_x	AC_y	AC_z	AC_x	GH_y	GH_z	GH_yy	EL_x	PS_y
       0.0              -42.97          27.27          27.11          33.17          2.127         -12.36         -86.97          51.08          -79.2          28.33          84.64
   0.02809              -42.97          27.27          27.11          33.17          2.125         -12.36         -86.97          51.08         -79.21          28.33          84.65
   0.05619              -42.97          27.26          27.11          33.17          2.123         -12.35         -86.97          51.08         -79.22          28.34          84.65
   0.08428              -42.97          27.26          27.11          33.17          2.121         -12.35         -86.97          51.08         -79.23          28.35          84.65
    0.1124              -42.97          27.26          27.11          33.17          2.119         -12.34         -86.96          51.08         -79.24          28.36          84.65
    0.1405              -42.97          27.25          27.12          33.17          2.116         -12.34         -86.96          51.07         -79.25          28.37          84.65
    0.1686              -42.97          27.25          27.12          33.17          2.113         -12.33         -86.96          51.07         -79.26          28.38          84.66
    0.1967              -42.97          27.25          27.12          33.17          2.111         -12.33         -86.96          51.07         -79.28           28.4          84.66
    0.2248              -42.97          27.24          27.12          33.17          2.108         -12.32         -86.96          51.07         -79.29          28.41          84.66
    0.2528              -42.97          27.24          27.12          33.17          2.105         -12.31         -86.95          51.07         -79.31          28.42          84.67
    0.2809              -42.98          27.23          27.13          33.17          2.101          -12.3         -86.95          51.07         -79.33          28.44          84.67
     0.309              -42.98          27.23          27.13          33.17          2.097         -12.29         -86.95          51.07         -79.34          28.45          84.67
    0.3371              -42.98          27.22          27.13          33.17          2.093         -12.28         -86.94          51.07         -79.36          28.47          84.68
    0.3652              -42.98          27.21          27.14          33.17          2.089         -12.27         -86.94          51.07         -79.39          28.49          84.68
    0.3933              -42.98          27.21          27.14          33.17          2.084         -12.26         -86.94          51.06         -79.41          28.51          84.68
    0.4214              -42.98           27.2          27.14          33.17          2.079         -12.25         -86.93          51.06         -79.44          28.53          84.69
    0.4495              -42.98          27.19          27.15          33.17          2.074         -12.24         -86.93          51.06         -79.46          28.55          84.69
    0.4776              -42.98          27.18          27.15          33.17          2.068         -12.22         -86.92          51.06         -79.49          28.58           84.7
    0.5057              -42.99          27.17          27.16          33.17          2.061         -12.21         -86.92          51.06         -79.53          28.61           84.7
    0.5338              -42.99          27.16          27.16          33.17          2.054         -12.19         -86.91          51.05         -79.56          28.64          84.71
    0.5619              -42.99          27.15          27.17          33.17          2.046         -12.17         -86.91          51.05          -79.6          28.67          84.72
      0.59              -42.99          27.14          27.18          33.17          2.038         -12.15          -86.9          51.05         -79.64          28.71          84.73
    0.6181               -43.0          27.12          27.18          33.17          2.028         -12.13         -86.89          51.04         -79.69          28.75          84.73
    0.6462               -43.0          27.11          27.19          33.17          2.018          -12.1         -86.88          51.04         -79.75          28.79          84.74
    0.6743               -43.0          27.09           27.2          33.17          2.006         -12.07         -86.87          51.04          -79.8          28.84          84.76
    0.7024              -43.01          27.07          27.21          33.17          1.993         -12.04         -86.86          51.03         -79.87           28.9          84.77
    0.7304              -43.01          27.05          27.22          33.17          1.978         -12.01         -86.85          51.03         -79.94          28.96          84.78
    0.7585              -43.01          27.02          27.23          33.17          1.962         -11.97         -86.84          51.02         -80.03          29.03           84.8
    0.7866              -43.02          26.99          27.25          33.17          1.943         -11.92         -86.82          51.02         -80.12          29.11          84.81
    0.8147              -43.02          26.96          27.27          33.17          1.922         -11.87          -86.8          51.01         -80.23           29.2          84.83
    0.8428              -43.03          26.92          27.28          33.17          1.898         -11.81         -86.78           51.0         -80.35           29.3          84.85
    0.8709              -43.04          26.88          27.31          33.16           1.87         -11.74         -86.76          50.99         -80.49          29.42          84.88
     0.899              -43.05          26.83          27.33          33.16          1.838         -11.67         -86.73          50.98         -80.65          29.56          84.91
    0.9271              -43.06          26.78          27.36          33.16          1.801         -11.58          -86.7          50.97         -80.84          29.72          84.94
    0.9552              -43.07          26.71          27.39          33.16          1.757         -11.47         -86.67          50.95         -81.06           29.9          84.98
    0.9833              -43.08          26.63          27.43          33.16          1.706         -11.35         -86.62          50.93         -81.31          30.12          85.03
     1.011               -43.1          26.54          27.48          33.16          1.645          -11.2         -86.57          50.91         -81.62          30.38          85.08
     1.039              -43.12          26.43          27.54          33.16          1.571         -11.02         -86.51          50.89         -81.99          30.69          85.15
     1.068              -43.14           26.3           27.6          33.16          1.483         -10.81         -86.44          50.86         -82.43          31.07          85.23
     1.096              -43.17          26.14          27.69          33.16          1.375         -10.55         -86.35          50.82         -82.98          31.53          85.33
     1.124              -43.21          25.93          27.79          33.16          1.241         -10.23         -86.24          50.78         -83.65          32.09          85.45
     1.152              -43.25          25.68          27.92          33.16          1.075         -9.826          -86.1          50.72         -84.49           32.8           85.6
      1.18              -43.31          25.37          28.08          33.16         0.8653         -9.321         -85.93          50.65         -85.54          33.69          85.79
     1.208              -43.38          24.97          28.29          33.16         0.5989         -8.678         -85.71          50.56         -86.88          34.83          86.04
     1.236              -43.48          24.45          28.55          33.16         0.2578         -7.855         -85.43          50.44         -88.59          36.28          86.35
     1.264              -43.59          23.79          28.89          33.15        -0.1799         -6.798         -85.07          50.29         -90.79          38.14          86.75
     1.292              -43.75          22.95          29.32          33.15         -0.739         -5.449         -84.61           50.1         -93.61          40.52          87.26
      1.32              -43.94          21.89          29.86          33.14         -1.442         -3.753         -84.03          49.86         -97.14          43.51           87.9
     1.349              -44.17          20.59          30.52          33.14         -2.299         -1.686         -83.32          49.57         -101.4          47.16          88.68
     1.377              -44.44           19.1          31.29          33.13         -3.292         0.7101          -82.5          49.23         -106.4          51.38          89.58
     1.405              -44.73          17.47          32.12          33.13         -4.367          3.305         -81.62          48.87         -111.8          55.96          90.56
     1.433              -45.02          15.85          32.94          33.12         -5.442          5.899         -80.73           48.5         -117.3          60.53          91.54
     1.461              -45.29          14.35          33.71          33.11         -6.435          8.295         -79.91          48.17         -122.2          64.76          92.45
     1.489              -45.52          13.06          34.37          33.11         -7.292          10.36         -79.21          47.87         -126.6           68.4          93.23
     1.517              -45.72           12.0          34.91          33.11         -7.995          12.06         -78.63          47.63         -130.1          71.39          93.87
     1.545              -45.87          11.16          35.34           33.1         -8.554          13.41         -78.17          47.44         -132.9          73.77          94.38
     1.573              -45.99           10.5          35.68           33.1         -8.992          14.46         -77.81           47.3         -135.1          75.64          94.78
     1.601              -46.08           9.98          35.95           33.1         -9.333          15.29         -77.53          47.18         -136.8          77.09          95.09
     1.629              -46.15          9.578          36.15           33.1           -9.6          15.93         -77.31          47.09         -138.2          78.22          95.33
     1.658              -46.21          9.262          36.31          33.09         -9.809          16.44         -77.13          47.02         -139.2          79.11          95.52
     1.686              -46.25          9.011          36.44          33.09         -9.976          16.84          -77.0          46.96         -140.0          79.82          95.67
     1.714              -46.29           8.81          36.54          33.09         -10.11          17.16         -76.89          46.92         -140.7          80.39          95.79
     1.742              -46.32          8.647          36.63          33.09         -10.22          17.42          -76.8          46.88         -141.3          80.85          95.89
      1.77              -46.34          8.513           36.7          33.09         -10.31          17.63         -76.72          46.85         -141.7          81.22          95.97
     1.798              -46.36          8.403          36.75          33.09         -10.38          17.81         -76.66          46.82         -142.1          81.54          96.04
